# xmcd CD database file
# Copyright (C) 1997 Ti Kan
# 
# Track frame offsets:
#     150
#     22657
#     56845
#     75310
#     88805
#     106625
#     117655
#     139962
#     159422
#     191655
#     214345
#     238677
#     270245
#     293852
#     311065
#     334515
# 
# Disc length: 4742 seconds
# 
# Revision: 1
# Processed by: cddbd v1.4b41PL1 Copyright (c) Steve Scherf et al.
# Submitted via: DiscPlay 4.0.2
# 
DISCID=dc128410
DTITLE=The Allman Brothers Band - The Best Of The Allman Brothers
DYEAR=1900
DGENRE=
TTITLE0=Ramblin' Man
TTITLE1=Pegasus
TTITLE2=Revival
TTITLE3=Midnight Rider
TTITLE4=Melissa
TTITLE5=Don't Want You No More
TTITLE6=It's Not My Cross To Bear
TTITLE7=Statesboro Blues
TTITLE8=Jessica
TTITLE9=Hoochie Coochie Man
TTITLE10=Whipping Post
TTITLE11=In Memory Of Elizabeth Reed
TTITLE12=Blue Sky
TTITLE13=Crazy Love
TTITLE14=Southbound
TTITLE15=Win, Lose Or Draw
EXTD=
EXTT0=
EXTT1=
EXTT2=
EXTT3=
EXTT4=
EXTT5=
EXTT6=
EXTT7=
EXTT8=
EXTT9=
EXTT10=
EXTT11=
EXTT12=
EXTT13=
EXTT14=
EXTT15=
PLAYORDER=
